<?xml version="1.0" encoding="utf-8"?>
<!-- Generator: Adobe Illustrator 24.1.3, SVG Export Plug-In . SVG Version: 6.00 Build 0)  -->
<svg version="1.1" xmlns="http://www.w3.org/2000/svg" xmlns:xlink="http://www.w3.org/1999/xlink" x="0px" y="0px"
	 viewBox="0 0 140.8 44" style="enable-background:new 0 0 140.8 44;" xml:space="preserve">
<style type="text/css">
	.st0{display:none;}
	.st1{display:inline;fill:#F0F0F1;}
	.st2{fill:#E03C39;}
	.st3{fill:#0067BE;}
	.st4{fill:#ED462A;}
	.st5{fill:#2D3250;}
	.st6{fill:#FFFFFF;}
</style>
<g id="Layer_1">
</g>
<g id="Layer_3" class="st0">
	<rect x="-88.4" y="-402" class="st1" width="708.1" height="708.1"/>
</g>
<g id="Isolation_Mode">
	<path class="st2" d="M17.7,26.5l19.5-4.1L36.9,16c0-0.3-0.2-0.5-0.5-0.4L5.5,18.9c-0.4,0-0.6,0.6-0.2,0.8l4,2.8
		c0.1,0.1,0.2,0.2,0.2,0.3l1.4,7.1c0.1,0.3,0.3,0.4,0.5,0.4l6.1-1.5L17.4,27C17.3,26.8,17.5,26.5,17.7,26.5z"/>
	<path class="st3" d="M39.9,21.8l-2.7,0.6l0.1,1.3c0,0.2-0.1,0.4-0.3,0.5l-19.3,4.7l1.2,8.8c0,0.3,0.3,0.5,0.6,0.4l19.4-7.5
		c0.2-0.1,0.3-0.2,0.3-0.4l0.1-5.8c0-0.1,0-0.2,0.1-0.2l1.1-1.6C40.6,22.1,40.3,21.7,39.9,21.8z"/>
	<path class="st4" d="M37.3,23.7l-0.1-1.3l-19.5,4.1c-0.2,0-0.4,0.3-0.4,0.5l0.3,1.8l19.3-4.7C37.1,24.1,37.3,23.9,37.3,23.7z"/>
	<path class="st5" d="M37.3,23.7l-0.1-1.3l-19.5,4.1c-0.2,0-0.4,0.3-0.4,0.5l0.3,1.8l19.3-4.7C37.1,24.1,37.3,23.9,37.3,23.7z"/>
	<polygon class="st6" points="22.3,22.3 24.6,20.6 21.8,20.6 20.9,17.8 20,20.6 17.1,20.6 19.4,22.3 18.5,25 20.9,23.3 23.2,25 	"/>
	<g>
		<path class="st5" d="M15.6,17.1c-0.3,0-0.5-0.2-0.5-0.5V6.9c0-0.5,0.4-0.9,0.9-0.9h10.8c0.5,0,0.9,0.4,0.9,0.9v8.4
			c0,0.3-0.2,0.5-0.5,0.5s-0.5-0.2-0.5-0.5V6.9L16.1,7l0.1,9.6C16.1,16.9,15.9,17.1,15.6,17.1z"/>
	</g>
	<g>
		<g>
			<path d="M50.1,18.2h2.1l0-3l3.4-1.5v3.6l-0.2,0.9h3.1v2.9h-3.1l0.2,0.9v5.3c0,1.4,0.3,1.7,1.6,1.7c0.6,0,1.2-0.1,1.8-0.2v2.7
				c-0.9,0.3-2,0.6-3.3,0.6c-2.6,0-3.7-1.1-3.7-4.1v-6.8h-2V18.2z"/>
			<path d="M59.1,25c0-4.1,2.5-7.2,6.8-7.2c2.9,0,4.9,1.1,5.6,3.9l-3.3,1.3c-0.2-1.2-0.7-2.4-2.3-2.4c-1.8,0-2.9,1.4-2.9,4.3
				c0,2.8,0.8,4.5,2.9,4.5c1.4,0,2.2-0.7,2.5-2l3,1.3c-0.7,1.8-2.3,3.5-5.7,3.5C61.6,32.2,59.1,29.3,59.1,25z"/>
			<path d="M75.7,20c0,0.4-0.1,1.8-0.1,1.8h0.2c0.7-2.5,2.4-3.9,4.7-3.9c2.3,0,3.6,1.6,3.8,3.8h0.2c0.8-2.4,2.5-3.8,4.6-3.8
				c2.6,0,3.8,1.9,3.8,4.9v9.1h-3.8v-8.1c0-1.8-0.3-2.8-1.7-2.8c-1.3,0-2.8,1-3,3.7v7.1h-3.8v-8.1c0-2.2-0.7-2.8-1.9-2.8
				c-1.5,0-2.9,1.3-2.9,3.9v7H72V18.2h3.7V20z"/>
			<path d="M98,19.4c0,0.3-0.2,2.4-0.2,2.4H98c0.8-2.5,2.5-3.9,4.7-3.9c2.6,0,4.1,1.6,4.1,4.9v9.1H103v-8.1c0-2.2-0.9-2.8-2.1-2.8
				c-1.5,0-2.8,1.4-2.9,4.1v6.7h-3.7v-20H98V19.4z"/>
			<path d="M108,25c0-4.1,2.5-7.2,6.8-7.2c2.9,0,4.9,1.1,5.6,3.9l-3.3,1.3c-0.2-1.2-0.7-2.4-2.3-2.4c-1.8,0-2.9,1.4-2.9,4.3
				c0,2.8,0.8,4.5,2.9,4.5c1.4,0,2.2-0.7,2.5-2l3,1.3c-0.7,1.8-2.3,3.5-5.7,3.5C110.5,32.2,108,29.3,108,25z"/>
			<path d="M120,25c0-4.1,2.5-7.2,6.8-7.2c2.9,0,4.9,1.1,5.6,3.9l-3.3,1.3c-0.2-1.2-0.7-2.4-2.3-2.4c-1.8,0-2.9,1.4-2.9,4.3
				c0,2.8,0.8,4.5,2.9,4.5c1.4,0,2.2-0.7,2.5-2l3,1.3c-0.7,1.8-2.3,3.5-5.7,3.5C122.4,32.2,120,29.3,120,25z"/>
		</g>
	</g>
</g>
</svg>
