<?xml version="1.0" encoding="utf-8"?>
<!-- Generator: Adobe Illustrator 24.1.3, SVG Export Plug-In . SVG Version: 6.00 Build 0)  -->
<svg version="1.1" id="Layer_1" xmlns="http://www.w3.org/2000/svg" xmlns:xlink="http://www.w3.org/1999/xlink" x="0px" y="0px"
	 viewBox="0 0 191.8 35.8" style="enable-background:new 0 0 191.8 35.8;" xml:space="preserve">
<style type="text/css">
	.st0{fill:#E03C39;}
	.st1{fill:#0067BE;}
	.st2{fill:#EE462A;}
	.st3{fill:#2D3250;}
	.st4{fill:#FFFFFF;}
</style>
<g id="Isolation_Mode">
	<path d="M46.1,9.5h1.4l0.1-2L51,6.1v2.8l-0.1,0.6H53v2.6h-2.2l0.1,0.8v2.8c0,1,0.3,1.2,1.1,1.2c0.5,0,0.9-0.1,1.3-0.2v2.3
		c-1,0.4-2,0.6-3,0.6c-1.9,0-2.9-1-2.9-3.2v-4.3h-1.4V9.5z"/>
	<path d="M53.1,14.6c0-3.2,1.8-5.4,5.3-5.4c2.1,0,4,0.9,4.3,3.3l-3.2,0.9c0-1-0.2-1.8-1.2-1.8s-1.5,0.8-1.5,2.8s0.3,2.9,1.5,2.9
		c0.8,0,1.2-0.4,1.3-1.5l3,1.1c-0.4,1.4-1.5,3-4.4,3C55,19.8,53.1,17.8,53.1,14.6z"/>
	<path d="M66.5,10.8c0,0-0.2,1.5-0.2,1.5h0.2c0.3-1.7,1.8-3,3.5-3.1c1.7,0,2.6,1.1,2.8,2.8h0.1c0.4-1.6,1.8-2.7,3.4-2.8
		c2,0,2.9,1.4,2.9,3.8v6.6h-3.7V14c0-1.5-0.3-1.9-1-1.9s-1.5,0.5-1.7,2v5.4h-3.7V14c0-1.6-0.3-1.9-1-1.9s-1.6,0.5-1.7,2.5v4.9h-3.7
		V9.5h3.6L66.5,10.8z"/>
	<path d="M83.4,9.6l-0.3,2.6h0.2c0.5-1.9,1.8-3.1,3.6-3.1c2,0,3.1,1.3,3.1,3.8v6.6h-3.7V14c0-1.6-0.5-1.9-1.2-1.9
		c-0.8,0-1.4,0.5-1.6,2.5v4.9h-3.6V5.1h3.6V9.6z"/>
	<path d="M90.4,14.6c0-3.2,1.8-5.4,5.3-5.4c2.1,0,4,0.9,4.3,3.3l-3.2,0.9c0-1-0.2-1.8-1.2-1.8s-1.5,0.8-1.5,2.8s0.3,2.9,1.5,2.9
		c0.8,0,1.2-0.4,1.3-1.5l3,1.1c-0.4,1.4-1.5,3-4.4,3C92.3,19.8,90.4,17.8,90.4,14.6z"/>
	<path d="M99.5,14.6c0-3.2,1.8-5.4,5.3-5.4c2.1,0,4,0.9,4.3,3.3l-3.2,0.9c0-1-0.2-1.8-1.2-1.8s-1.5,0.8-1.5,2.8s0.3,2.9,1.5,2.9
		c0.8,0,1.2-0.4,1.3-1.5l3,1.1c-0.4,1.4-1.5,3-4.4,3C101.4,19.8,99.5,17.8,99.5,14.6z"/>
	<path d="M46.2,25.2h3.9v0.3h-1.8v5.2H48v-5.2h-1.8V25.2z"/>
	<path d="M49.9,28.7c0-1.4,0.8-2.2,1.9-2.2c0.9,0,1.7,0.7,1.7,1.5c0,0.1,0,0.2,0,0.3v0.3h-3.2c0,1.2,0.6,1.8,1.5,1.8
		c0.5,0,1-0.2,1.2-0.6l0.3,0.2c-0.4,0.5-0.9,0.7-1.5,0.7C50.6,30.8,49.9,30,49.9,28.7z M50.2,28.4h2.8v-0.1c0-1-0.4-1.6-1.3-1.6
		C51,26.8,50.3,27.3,50.2,28.4z"/>
	<path d="M55.7,29.2l-0.2-0.4l0,0l-0.3,0.5l-1.1,1.4h-0.4L55,29l0.3-0.4l0,0l-0.3-0.3l-1.2-1.7h0.4l1,1.4l0.2,0.3l0,0l0.3-0.5l1-1.3
		h0.4L56,28.2l-0.3,0.4l0,0l0.3,0.3l1.3,1.8h-0.4L55.7,29.2z"/>
	<path d="M60.3,29.7c-0.2,0.7-0.9,1.1-1.6,1.1c-0.9,0-1.2-0.5-1.2-1.1c0-0.7,0.6-1.1,1.5-1.3s1.3-0.2,1.3-0.5v-0.1
		c0-0.7-0.3-1-1.1-1c-0.5,0-1,0.3-1.3,0.7l-0.3-0.2c0.4-0.5,1-0.9,1.7-0.8c0.7-0.1,1.3,0.4,1.4,1.1c0,0.1,0,0.2,0,0.3v1.4
		c0,0.5,0,0.9,0.2,1.4h-0.4C60.3,30.4,60.3,30.1,60.3,29.7z M60.3,29.1v-0.8c-0.1,0.2-0.7,0.3-1,0.4c-0.9,0.2-1.4,0.4-1.4,1
		c0,0.4,0.3,0.8,0.8,0.8c0,0,0.1,0,0.1,0C59.6,30.5,60.3,29.9,60.3,29.1L60.3,29.1z"/>
	<path d="M61.3,30l0.3-0.2c0.3,0.5,0.8,0.7,1.3,0.7c0.6,0,1-0.3,1-0.8s-0.6-0.7-1.2-0.9s-1.3-0.4-1.3-1.2s0.7-1.1,1.4-1.1
		c0.6,0,1.1,0.2,1.4,0.7L64,27.4c-0.3-0.4-0.7-0.6-1.2-0.6c-0.6,0-1,0.3-1,0.8s0.5,0.7,1.2,0.9s1.3,0.5,1.3,1.2s-0.6,1.1-1.4,1.1
		C62.3,30.9,61.7,30.6,61.3,30z"/>
	<path d="M66.1,28c0-1.8,1.1-2.9,2.5-2.9c1-0.1,1.9,0.6,2.1,1.6l-0.4,0.1c-0.2-0.8-0.9-1.4-1.7-1.3c-1.3,0-2.1,1-2.1,2.6l0,0
		c0,1.5,0.7,2.6,2.1,2.6c0.9,0,1.7-0.6,1.9-1.5l0.3,0.1c-0.2,1.1-1.1,1.9-2.2,1.8C67,30.9,66.1,29.7,66.1,28z"/>
	<path d="M72,27.2v0.7l0,0c0.2-0.8,0.8-1.3,1.6-1.3c0.9,0,1.2,0.6,1.2,1.6v2.6h-0.3v-2.6c0-0.9-0.3-1.4-1-1.4S72,27.6,72,28.8v2
		h-0.3v-6.1H72V27.2z"/>
	<path d="M76.1,25.6v-0.7l0,0h0.3l0,0v0.7l0,0H76.1L76.1,25.6z M76.1,26.6h0.3v4.2h-0.3L76.1,26.6z"/>
	<path d="M77.8,24.6h0.3v6.1h-0.3V24.6z"/>
	<path d="M79.1,28.6c0-1.3,0.6-2.1,1.8-2.1c0.7,0,1.3,0.4,1.5,1.1l0,0V27v-2.4h0.3v6.1h-0.3v-1.1c-0.2,0.7-0.9,1.2-1.6,1.2
		C79.8,30.8,79.1,30,79.1,28.6z M82.4,28.8v-0.2c0.1-0.9-0.5-1.7-1.4-1.8c0,0-0.1,0-0.1,0c-1,0-1.5,0.7-1.5,1.8s0.5,1.9,1.4,1.9
		c0.9,0,1.6-0.7,1.5-1.6C82.4,28.9,82.4,28.8,82.4,28.8z"/>
	<path d="M85.3,25.2h0.6l1.9,4.5l0.3,0.8l0,0l0.2-0.8l1.9-4.5h0.6v5.6h-0.3v-3.5v-1.9l0,0l-0.6,1.5l-1.6,3.9h-0.3L86.3,27l-0.6-1.6
		l0,0v1.9v3.5h-0.3L85.3,25.2z"/>
	<path d="M91.8,28.7c0-1.4,0.8-2.2,1.9-2.2c0.9,0,1.7,0.7,1.7,1.5c0,0.1,0,0.2,0,0.3v0.3h-3.2c0,1.2,0.6,1.8,1.5,1.8
		c0.5,0,1-0.2,1.2-0.6l0.3,0.2c-0.4,0.5-0.9,0.7-1.5,0.7C92.5,30.8,91.8,30,91.8,28.7z M92.2,28.4H95v-0.1c0-1-0.4-1.6-1.3-1.6
		C92.9,26.8,92.3,27.3,92.2,28.4z"/>
	<path d="M96.7,27.2v0.7l0,0c0.2-0.8,0.8-1.4,1.6-1.4c0.9,0,1.2,0.7,1.2,1.7v2.6h-0.4v-2.6c0-0.9-0.3-1.4-1-1.4s-1.5,0.7-1.5,1.9v2
		h-0.3v-4.2h0.3V27.2z"/>
	<path d="M100.1,26.6h0.8v-1.3l0.3-0.2v1.4h1.4v0.3h-1.4v0.4v2.2c0,0.7,0.1,0.9,0.7,0.9c0.3,0,0.6,0,0.8-0.2v0.3
		c-0.3,0.1-0.6,0.2-0.9,0.2c-0.7,0-1-0.3-1-1.1v-2.8h-0.8L100.1,26.6z"/>
	<path d="M105.8,29.7c-0.2,0.7-0.9,1.1-1.6,1.1c-0.9,0-1.2-0.5-1.2-1.1c0-0.7,0.6-1.1,1.5-1.3s1.3-0.2,1.3-0.5v-0.1
		c0-0.7-0.3-1-1.1-1c-0.5,0-1,0.3-1.3,0.7l-0.3-0.2c0.4-0.6,1-0.9,1.7-0.9c0.7-0.1,1.3,0.4,1.4,1c0,0.1,0,0.2,0,0.4v1.4
		c-0.1,0.5,0,0.9,0.2,1.4H106C105.8,30.4,105.8,30.1,105.8,29.7z M105.8,29.1v-0.8c-0.1,0.2-0.7,0.3-1,0.4c-0.9,0.2-1.4,0.4-1.4,1
		s0.4,0.8,0.9,0.8C105.1,30.5,105.8,29.9,105.8,29.1L105.8,29.1z"/>
	<path d="M107.3,24.6h0.4v6.1h-0.3L107.3,24.6z"/>
	<path d="M110.3,25.2h0.3v2.5h3.3v-2.5h0.3v5.6h-0.3v-2.7h-3.3v2.7h-0.3V25.2z"/>
	<path d="M115.3,28.7c0-1.4,0.8-2.2,1.9-2.2c0.9,0,1.7,0.7,1.7,1.5c0,0.1,0,0.2,0,0.3v0.3h-3.2c0,1.2,0.6,1.8,1.5,1.8
		c0.5,0,1-0.2,1.2-0.6l0.3,0.2c-0.4,0.5-0.9,0.7-1.5,0.7C116,30.8,115.3,30,115.3,28.7z M115.7,28.4h2.8v-0.1c0-1-0.4-1.6-1.3-1.6
		C116.4,26.8,115.8,27.3,115.7,28.4L115.7,28.4z"/>
	<path d="M122.3,29.7c-0.2,0.7-0.9,1.1-1.6,1.1c-0.9,0-1.2-0.5-1.2-1.1c0-0.7,0.6-1.1,1.5-1.3s1.3-0.2,1.3-0.5v-0.1
		c0-0.7-0.3-1-1.1-1c-0.5,0-1,0.3-1.3,0.7l-0.3-0.2c0.4-0.5,1-0.9,1.6-0.8c0.7-0.1,1.3,0.3,1.4,1c0,0.1,0,0.2,0,0.4v1.4
		c0,0.5,0,0.9,0.2,1.4h-0.4C122.4,30.4,122.3,30.1,122.3,29.7z M122.3,29.1v-0.8c-0.3,0.2-0.6,0.3-1,0.4c-0.9,0.2-1.4,0.4-1.4,1
		s0.4,0.8,0.9,0.8C121.6,30.5,122.3,29.9,122.3,29.1L122.3,29.1z"/>
	<path d="M123.8,24.6h0.4v6.1h-0.4V24.6z"/>
	<path d="M124.9,26.6h0.8v-1.3l0.3-0.2v1.4h1.4v0.3H126v0.4v2.2c0,0.7,0.1,0.9,0.7,0.9c0.3,0,0.6,0,0.8-0.2v0.3
		c-0.3,0.1-0.6,0.2-0.9,0.2c-0.7,0-0.9-0.3-0.9-1.1v-2.8h-0.8L124.9,26.6z"/>
	<path d="M128.5,27.2v0.7l0,0c0.2-0.8,0.8-1.3,1.6-1.3c0.9,0,1.3,0.6,1.3,1.6v2.6H131v-2.6c0-0.9-0.3-1.4-1-1.4s-1.5,0.8-1.5,1.9v2
		h-0.4v-6.1h0.4V27.2z"/>
	<path d="M133.5,28c0-1.8,1.1-2.9,2.5-2.9c1-0.1,1.9,0.6,2.1,1.6l-0.4,0.1c-0.2-0.8-0.9-1.4-1.7-1.3c-1.3,0-2.1,1-2.1,2.6l0,0
		c0,1.5,0.7,2.6,2.1,2.6c0.9,0,1.7-0.6,1.8-1.5l0.4,0.1c-0.2,1.1-1.1,1.8-2.2,1.8C134.3,30.9,133.5,29.7,133.5,28z"/>
	<path d="M141.4,29.7c-0.2,0.7-0.9,1.1-1.6,1.1c-0.9,0-1.2-0.5-1.2-1.1c0-0.7,0.6-1.1,1.5-1.3s1.3-0.2,1.3-0.5v-0.1
		c0-0.7-0.3-1-1.1-1c-0.5,0-1,0.3-1.3,0.7l-0.3-0.2c0.4-0.5,1-0.9,1.6-0.8c0.7-0.1,1.3,0.4,1.4,1.1c0,0.1,0,0.2,0,0.3v1.4
		c0,0.5,0,0.9,0.2,1.4h-0.4C141.4,30.4,141.4,30.1,141.4,29.7z M141.4,29.1v-0.8c-0.1,0.2-0.7,0.3-1,0.4c-0.9,0.2-1.4,0.4-1.4,1
		s0.4,0.8,0.9,0.8C140.7,30.5,141.4,29.9,141.4,29.1L141.4,29.1z"/>
	<path d="M142.9,26.6h0.4v0.6l-0.1,1.3l0,0c0.2-1.1,0.8-2,1.6-2h0.2v0.4c-0.1,0-0.2,0-0.2,0c-0.8,0-1.3,1-1.5,2v1.9h-0.3L142.9,26.6
		z"/>
	<path d="M145,28.7c0-1.4,0.8-2.2,1.9-2.2c0.9,0,1.7,0.7,1.7,1.5c0,0.1,0,0.2,0,0.3v0.3h-3.2c0,1.2,0.6,1.8,1.5,1.8
		c0.5,0,1-0.2,1.2-0.6l0.3,0.2c-0.4,0.5-0.9,0.7-1.5,0.7C145.7,30.8,145,30,145,28.7z M145.4,28.4h2.8v-0.1c0-1-0.4-1.6-1.3-1.6
		C146.1,26.8,145.5,27.3,145.4,28.4z"/>
	<path d="M150.4,28c-0.2-1.4,0.8-2.7,2.3-2.9c0.1,0,0.2,0,0.3,0c1-0.1,1.9,0.6,2.1,1.6l-0.4,0.1c-0.2-0.8-0.9-1.4-1.7-1.3
		c-1.3,0-2.1,1-2.1,2.6l0,0c0,1.5,0.7,2.6,2,2.6c0.9,0.1,1.7-0.5,1.9-1.5l0.4,0.1c-0.2,1.1-1.1,1.8-2.2,1.8
		C151.3,30.9,150.4,29.7,150.4,28z"/>
	<path d="M155.6,28.7c-0.1-1.1,0.7-2.1,1.8-2.2c0.1,0,0.1,0,0.2,0c1.2,0,1.9,0.8,1.9,2.2c0.1,1.1-0.6,2-1.7,2.1c-0.1,0-0.2,0-0.2,0
		c-1,0.1-1.9-0.7-2-1.8C155.6,28.9,155.6,28.8,155.6,28.7z M159.1,28.7c0-1.1-0.5-1.9-1.5-1.9c-0.9,0-1.6,0.8-1.6,1.7
		c0,0.1,0,0.1,0,0.2c0,1.2,0.6,1.8,1.6,1.8S159.1,29.8,159.1,28.7z"/>
	<path d="M160.7,27.2l-0.1,0.7l0,0c0.2-0.8,0.8-1.4,1.6-1.4c0.9,0,1.2,0.7,1.2,1.7v2.6h-0.4v-2.6c0-0.9-0.3-1.4-1-1.4
		s-1.5,0.7-1.5,1.9v2h-0.4v-4.2h0.4V27.2z"/>
	<path d="M164.4,30l0.3-0.2c0.3,0.5,0.8,0.7,1.3,0.7c0.6,0,1-0.3,1-0.8s-0.6-0.7-1.1-0.9s-1.3-0.4-1.3-1.2s0.7-1.1,1.4-1.1
		c0.6,0,1.1,0.2,1.4,0.7l-0.3,0.2c-0.3-0.4-0.7-0.6-1.2-0.6c-0.6,0-1,0.3-1,0.8s0.5,0.7,1.1,0.9s1.3,0.5,1.3,1.2s-0.6,1.1-1.4,1.1
		C165.3,30.9,164.7,30.6,164.4,30z"/>
	<path d="M167.8,28.7c-0.1-1.1,0.7-2.1,1.8-2.2c0.1,0,0.1,0,0.2,0c1.2,0,1.9,0.8,1.9,2.2c0.1,1.1-0.6,2-1.7,2.1c-0.1,0-0.2,0-0.2,0
		c-1,0.1-1.9-0.7-2-1.8C167.8,28.9,167.8,28.8,167.8,28.7z M171.3,28.7c0-1.1-0.5-1.9-1.5-1.9s-1.6,0.8-1.6,1.9s0.6,1.8,1.6,1.8
		S171.3,29.8,171.3,28.7L171.3,28.7z"/>
	<path d="M172.5,26.6h0.4v0.6l-0.1,1.3l0,0c0.2-1.1,0.8-2,1.6-2h0.2v0.4c-0.1,0-0.2,0-0.2,0c-0.8,0-1.3,1-1.5,2v1.9h-0.3L172.5,26.6
		z"/>
	<path d="M174.6,26.6h0.8v-1.3l0.3-0.2v1.4h1.4v0.3h-1.3v2.7c0,0.7,0.1,0.9,0.7,0.9c0.3,0,0.5,0,0.8-0.2v0.3
		c-0.3,0.1-0.6,0.2-0.9,0.2c-0.7,0-1-0.3-1-1.1v-2.8h-0.8L174.6,26.6z"/>
	<path d="M177.8,25.6v-0.7l0,0h0.3l0,0v0.7l0,0H177.8L177.8,25.6z M177.8,26.6h0.4v4.2h-0.4V26.6z"/>
	<path d="M179.4,29.2v-2.6h0.3v2.6c0,0.9,0.3,1.3,1,1.3s1.3-0.7,1.4-1.9v-2.1h0.4v4.2h-0.4v-0.4v-0.8l0,0c-0.1,0.7-0.7,1.3-1.4,1.3
		C179.8,30.8,179.4,30.2,179.4,29.2z"/>
	<path d="M184.2,27.2l-0.1,0.7l0,0c0.1-0.8,0.8-1.4,1.6-1.4c0.8,0,1.1,0.6,1.1,1.4l0,0c0.1-0.8,0.7-1.3,1.5-1.4
		c0.8,0,1.1,0.6,1.1,1.7v2.6h-0.4v-2.5c0-0.9-0.2-1.4-0.9-1.4s-1.3,0.7-1.4,1.9v2h-0.4v-2.6c0-0.9-0.2-1.4-0.9-1.4s-1.4,0.7-1.4,1.9
		v2h-0.4v-4.2h0.4L184.2,27.2z"/>
	<path class="st0" d="M13.7,22.2L33.2,18l-0.3-6.4c0-0.2-0.2-0.4-0.5-0.4c0,0,0,0,0,0L1.5,14.6c-0.2,0-0.4,0.2-0.4,0.5
		c0,0.1,0.1,0.3,0.2,0.3l4,2.8c0.1,0.1,0.2,0.2,0.2,0.3l1.4,7.1c0,0.2,0.3,0.4,0.5,0.4c0,0,0,0,0,0l6.1-1.5l-0.2-1.8
		C13.3,22.4,13.5,22.2,13.7,22.2z"/>
	<path class="st1" d="M35.9,17.5L33.2,18l0.1,1.3c0,0.2-0.1,0.4-0.3,0.5l-19.3,4.7l1.2,8.8c0,0.2,0.3,0.4,0.5,0.4c0,0,0.1,0,0.1,0
		l19.4-7.5c0.2-0.1,0.3-0.2,0.3-0.4l0.1-5.8c0-0.1,0-0.2,0.1-0.2l1.1-1.6c0.1-0.2,0.1-0.5-0.1-0.6C36.2,17.5,36.1,17.4,35.9,17.5z"
		/>
	<path class="st2" d="M33.3,19.4L33.2,18l-19.5,4.1c-0.2,0.1-0.4,0.3-0.4,0.5l0.2,1.8l19.3-4.7C33.1,19.8,33.3,19.6,33.3,19.4z"/>
	<path class="st3" d="M33.3,19.4L33.2,18l-19.5,4.1c-0.2,0.1-0.4,0.3-0.4,0.5l0.2,1.8l19.3-4.7C33.1,19.8,33.3,19.6,33.3,19.4z"/>
	<polygon class="st4" points="18.3,17.9 20.6,16.3 17.8,16.3 16.9,13.5 16,16.3 13.1,16.3 15.4,17.9 14.5,20.7 16.9,19 19.2,20.7 	
		"/>
	<path class="st3" d="M11,12.8c-0.3,0-0.5-0.2-0.5-0.5V2.6c0-0.5,0.4-0.9,0.9-0.9l0,0h10.8c0.5,0,0.9,0.4,0.9,0.9V11
		c0,0.3-0.2,0.5-0.5,0.5s-0.5-0.2-0.5-0.5V2.6L11.5,2.7l0.1,9.6C11.5,12.6,11.3,12.8,11,12.8z"/>
</g>
</svg>
