<?xml version="1.0" encoding="utf-8"?>
<!-- Generator: Adobe Illustrator 24.0.0, SVG Export Plug-In . SVG Version: 6.00 Build 0)  -->
<svg version="1.1" id="Layer_1" xmlns="http://www.w3.org/2000/svg" xmlns:xlink="http://www.w3.org/1999/xlink" x="0px" y="0px"
	 viewBox="0 0 341 64" style="enable-background:new 0 0 341 64;" xml:space="preserve">
<g>
	<rect x="1.86" y="161.72" style="fill:none;" width="333.68" height="36.89"/>
	<text transform="matrix(1 0 0 1 1.8626 196.8222)"><tspan x="0" y="0" style="font-family:'HalyardTextBlack'; font-size:48.4781px; letter-spacing:-2;">t</tspan><tspan x="15.75" y="0" style="font-family:'HalyardTextBlack'; font-size:48.4781px; letter-spacing:-3;">cm</tspan><tspan x="79.41" y="0" style="font-family:'HalyardTextBlack'; font-size:48.4781px; letter-spacing:-2;">h</tspan><tspan x="106.12" y="0" style="font-family:'HalyardTextBlack'; font-size:48.4781px; letter-spacing:-3;">c</tspan><tspan x="128.17" y="0" style="font-family:'HalyardTextBlack'; font-size:48.4781px;">c</tspan></text>
	
		<text transform="matrix(1 0 0 1 1.8626 221.5883)" style="font-family:'HalyardTextExtraLight'; font-size:20.0122px; letter-spacing:-1;">Texas Child Mental Health Care Consortium</text>
</g>
<g>
	<path d="M1.2,12.44h3.3l0.24-4.75l8.19-3.39v6.64l-0.34,1.5h5.28v6.35h-5.28l0.34,1.89v6.79c0,2.33,0.73,3.01,2.57,3.01
		c0.97,0,2.18-0.15,3.25-0.44v5.67c-1.7,0.63-3.78,1.41-7.37,1.41c-4.65,0-6.93-2.47-6.93-7.85V18.79H1.2V12.44z"/>
	<path d="M18.02,24.7c0-7.71,4.36-13.04,12.9-13.04c5.14,0,9.65,2.23,10.37,8.05l-7.76,2.28c-0.1-2.42-0.48-4.46-2.91-4.46
		c-2.57,0-3.59,1.94-3.59,6.74c0,4.46,0.73,6.98,3.54,6.98c1.94,0,2.96-1.02,3.25-3.59l7.32,2.57c-0.92,3.3-3.68,7.17-10.71,7.17
		C22.73,37.4,18.02,32.65,18.02,24.7z"/>
	<path d="M50.45,15.49c0,0.15-0.48,3.64-0.48,3.64h0.44c1.21-4.65,4.36-7.47,8.58-7.47c4.07,0,6.35,2.71,6.83,6.74h0.29
		c1.41-4.17,4.51-6.74,8.24-6.74c4.8,0,7.13,3.25,7.13,9.16v16h-9.02V23.39c0-3.68-0.82-4.56-2.33-4.56c-1.84,0-3.64,1.31-4.02,4.94
		v13.04h-8.97V23.39c0-3.78-0.82-4.56-2.38-4.56c-1.79,0-3.78,1.26-4.12,6.06v11.93h-8.97V12.44h8.77V15.49z"/>
	<path d="M91.51,12.83c0,0.1-0.68,6.3-0.68,6.3h0.39c1.26-4.65,4.36-7.47,8.58-7.47c4.9,0,7.42,3.15,7.42,9.16v16H98.2V23.39
		c0-3.78-1.31-4.56-2.86-4.56c-2.04,0-3.49,1.31-3.78,6.16v11.83h-8.77V1.72h8.73V12.83z"/>
	<path d="M108.38,24.7c0-7.71,4.36-13.04,12.9-13.04c5.14,0,9.65,2.23,10.37,8.05l-7.76,2.28c-0.1-2.42-0.48-4.46-2.91-4.46
		c-2.57,0-3.59,1.94-3.59,6.74c0,4.46,0.73,6.98,3.54,6.98c1.94,0,2.96-1.02,3.25-3.59l7.32,2.57c-0.92,3.3-3.68,7.17-10.71,7.17
		C113.09,37.4,108.38,32.65,108.38,24.7z"/>
	<path d="M130.44,24.7c0-7.71,4.36-13.04,12.9-13.04c5.14,0,9.65,2.23,10.37,8.05l-7.76,2.28c-0.1-2.42-0.48-4.46-2.91-4.46
		c-2.57,0-3.59,1.94-3.59,6.74c0,4.46,0.73,6.98,3.54,6.98c1.94,0,2.96-1.02,3.25-3.59l7.32,2.57c-0.92,3.3-3.68,7.17-10.71,7.17
		C135.14,37.4,130.44,32.65,130.44,24.7z"/>
</g>
<g>
	<path d="M1.44,48.48h9.21v0.76H6.47v12.35H5.63V49.24H1.44V48.48z"/>
	<path d="M10.01,56.66c0.02-3.28,1.88-5.06,4.38-5.06c2.74,0,3.98,1.9,3.94,4.42v0.78h-7.49c0.04,2.74,1.36,4.24,3.58,4.24
		c1.5,0,2.38-0.6,2.94-1.4L18,60.07c-0.72,0.96-1.82,1.68-3.58,1.68C11.59,61.75,9.99,59.83,10.01,56.66z M10.87,56.14h6.63v-0.2
		c0-2.32-0.96-3.66-3.14-3.66C12.57,52.28,11.03,53.42,10.87,56.14z"/>
	<path d="M23.74,57.92L23.18,57h-0.06l-0.76,1.18l-2.52,3.4h-1l3.08-4.08l0.82-0.96v-0.08l-0.62-0.68l-2.88-4h0.96l2.42,3.38
		l0.5,0.8h0.06l0.68-1.04l2.28-3.14h0.98l-2.76,3.72l-0.78,0.96v0.08l0.6,0.7l3.16,4.34h-0.96L23.74,57.92z"/>
	<path d="M34.53,59.17c-0.46,1.54-1.98,2.6-3.72,2.58c-2.04-0.02-2.94-1.2-2.92-2.56c0.02-1.76,1.42-2.56,3.6-2.98
		c2.02-0.4,3-0.56,3-1.3v-0.16c0-1.6-0.8-2.44-2.56-2.44c-1.28,0-2.6,0.68-3.14,1.66l-0.7-0.36c0.68-1.12,2.16-2,3.88-2
		c2.22,0,3.34,1.02,3.34,3.32v3.38c0,2.06,0.2,2.94,0.42,3.28h-0.84C34.71,61.25,34.55,60.73,34.53,59.17z M34.49,57.56V55.8
		c-0.24,0.38-1.56,0.72-2.42,0.88c-2.02,0.36-3.32,1-3.32,2.46c0,1.28,0.92,1.9,2.14,1.9C32.86,61.05,34.45,59.53,34.49,57.56z"/>
	<path d="M37,59.85l0.62-0.44c0.74,1.24,1.94,1.64,3.16,1.64c1.48,0,2.4-0.74,2.4-1.94c0-1.26-1.32-1.72-2.72-2.2
		c-1.62-0.52-3.14-1.02-3.14-2.72c0-1.68,1.54-2.58,3.28-2.58c1.7,0,2.74,0.72,3.34,1.62l-0.62,0.44c-0.5-0.82-1.44-1.38-2.76-1.38
		c-1.36,0-2.4,0.72-2.4,1.8c0,1.3,1.1,1.62,2.7,2.18c1.56,0.54,3.14,1.08,3.14,2.84c0,1.64-1.34,2.64-3.28,2.64
		C39.17,61.75,37.83,61.17,37,59.85z"/>
	<path d="M48.19,55.06c0-4.22,2.52-6.83,5.95-6.83c2.54,0,4.08,1.26,4.88,3.74l-0.84,0.18c-0.74-2.24-2-3.18-4.06-3.18
		c-2.98,0-5.04,2.28-5.04,6.07v0.04c0,3.56,1.7,6.03,4.84,6.03c2.34,0,3.78-1.22,4.38-3.46l0.82,0.16c-0.68,2.6-2.42,4.02-5.21,4.02
		C50.25,61.83,48.19,59.05,48.19,55.06z"/>
	<path d="M62.02,53.2c0,0.04-0.1,1.56-0.1,1.56h0.1c0.22-1.28,1.56-3.16,3.78-3.16c2.14,0,2.96,1.46,2.96,3.76v6.23h-0.84v-6.05
		c0-2.06-0.66-3.22-2.34-3.22c-1.9,0-3.44,1.76-3.56,4.56v4.7H61.2V47.11h0.82V53.2z"/>
	<path d="M71.75,49.52v-1.7c0-0.04,0.02-0.06,0.08-0.06h0.78c0.02,0,0.06,0.02,0.06,0.06v1.7c0,0.06-0.04,0.08-0.06,0.08h-0.78
		C71.77,49.6,71.75,49.58,71.75,49.52z M71.79,51.78h0.84v9.81h-0.84V51.78z"/>
	<path d="M75.81,47.11h0.82v14.47h-0.82V47.11z"/>
	<path d="M78.83,56.6c0-3,1.48-5,4.2-5c1.82,0,3.08,1.14,3.56,2.5h0.08l-0.06-1.36v-5.63h0.82v14.47h-0.78v-1.66l0.02-0.92
		c-0.58,1.7-2.04,2.74-3.74,2.74C80.53,61.75,78.83,59.77,78.83,56.6z M86.66,56.96v-0.52c0-2.22-1.32-4.14-3.52-4.14
		c-2.28,0-3.44,1.6-3.44,4.28c0,2.82,1.28,4.46,3.34,4.46C84.98,61.05,86.66,59.55,86.66,56.96z"/>
	<path d="M93.48,48.48h1.34l4.4,10.63l0.6,1.82h0.08l0.56-1.82l4.4-10.63h1.38v13.11h-0.8v-8.21l0.1-4.4h-0.08l-1.4,3.46l-3.82,9.15
		h-0.78l-3.74-8.81l-1.5-3.8h-0.06l0.12,4.4v8.21h-0.8V48.48z"/>
	<path d="M108.75,56.66c0.02-3.28,1.88-5.06,4.38-5.06c2.74,0,3.98,1.9,3.94,4.42v0.78h-7.49c0.04,2.74,1.36,4.24,3.58,4.24
		c1.5,0,2.38-0.6,2.94-1.4l0.62,0.42c-0.72,0.96-1.82,1.68-3.58,1.68C110.33,61.75,108.73,59.83,108.75,56.66z M109.61,56.14h6.63
		v-0.2c0-2.32-0.96-3.66-3.14-3.66C111.31,52.28,109.77,53.42,109.61,56.14z"/>
	<path d="M120.3,53.2c0,0.04-0.12,1.72-0.12,1.72h0.1c0.24-1.3,1.56-3.32,3.8-3.32c2.12,0,2.94,1.62,2.94,3.92v6.07h-0.84v-6.05
		c0-2.06-0.66-3.22-2.32-3.22c-1.92,0-3.44,1.74-3.56,4.54v4.72h-0.84v-9.81h0.84V53.2z"/>
	<path d="M128.34,51.78h1.86l0.04-3l0.74-0.36v2.5l-0.02,0.86h3.2v0.72h-3.22l0.04,1v5.27c0,1.7,0.32,2.22,1.56,2.22
		c0.62,0,1.26-0.1,1.9-0.34v0.7c-0.5,0.2-1.32,0.36-2.02,0.36c-1.62,0-2.24-0.78-2.24-2.68V52.5h-1.84V51.78z"/>
	<path d="M141.69,59.17c-0.46,1.54-1.98,2.6-3.72,2.58c-2.04-0.02-2.94-1.2-2.92-2.56c0.02-1.76,1.42-2.56,3.6-2.98
		c2.02-0.4,3-0.56,3-1.3v-0.16c0-1.6-0.8-2.44-2.56-2.44c-1.28,0-2.6,0.68-3.14,1.66l-0.7-0.36c0.68-1.12,2.16-2,3.88-2
		c2.22,0,3.34,1.02,3.34,3.32v3.38c0,2.06,0.2,2.94,0.42,3.28h-0.84C141.87,61.25,141.71,60.73,141.69,59.17z M141.65,57.56V55.8
		c-0.24,0.38-1.56,0.72-2.42,0.88c-2.02,0.36-3.32,1-3.32,2.46c0,1.28,0.92,1.9,2.14,1.9C140.03,61.05,141.61,59.53,141.65,57.56z"
		/>
	<path d="M145.27,47.11h0.82v14.47h-0.82V47.11z"/>
	<path d="M152.21,48.48h0.84v6.01h7.73v-6.01h0.84v13.11h-0.84v-6.35h-7.73v6.35h-0.84V48.48z"/>
	<path d="M164.14,56.66c0.02-3.28,1.88-5.06,4.38-5.06c2.74,0,3.98,1.9,3.94,4.42v0.78h-7.49c0.04,2.74,1.36,4.24,3.58,4.24
		c1.5,0,2.38-0.6,2.94-1.4l0.62,0.42c-0.72,0.96-1.82,1.68-3.58,1.68C165.72,61.75,164.12,59.83,164.14,56.66z M165,56.14h6.63v-0.2
		c0-2.32-0.96-3.66-3.14-3.66C166.7,52.28,165.16,53.42,165,56.14z"/>
	<path d="M180.57,59.17c-0.46,1.54-1.98,2.6-3.72,2.58c-2.04-0.02-2.94-1.2-2.92-2.56c0.02-1.76,1.42-2.56,3.6-2.98
		c2.02-0.4,3-0.56,3-1.3v-0.16c0-1.6-0.8-2.44-2.56-2.44c-1.28,0-2.6,0.68-3.14,1.66l-0.7-0.36c0.68-1.12,2.16-2,3.88-2
		c2.22,0,3.34,1.02,3.34,3.32v3.38c0,2.06,0.2,2.94,0.42,3.28h-0.84C180.75,61.25,180.59,60.73,180.57,59.17z M180.53,57.56V55.8
		c-0.24,0.38-1.56,0.72-2.42,0.88c-2.02,0.36-3.32,1-3.32,2.46c0,1.28,0.92,1.9,2.14,1.9C178.91,61.05,180.49,59.53,180.53,57.56z"
		/>
	<path d="M184.15,47.11h0.82v14.47h-0.82V47.11z"/>
	<path d="M186.63,51.78h1.86l0.04-3l0.74-0.36v2.5l-0.02,0.86h3.2v0.72h-3.22l0.04,1v5.27c0,1.7,0.32,2.22,1.56,2.22
		c0.62,0,1.26-0.1,1.9-0.34v0.7c-0.5,0.2-1.32,0.36-2.02,0.36c-1.62,0-2.24-0.78-2.24-2.68V52.5h-1.84V51.78z"/>
	<path d="M195.04,53.2c0,0.04-0.1,1.56-0.1,1.56h0.1c0.22-1.28,1.56-3.16,3.78-3.16c2.14,0,2.96,1.46,2.96,3.76v6.23h-0.84v-6.05
		c0-2.06-0.66-3.22-2.34-3.22c-1.9,0-3.44,1.76-3.56,4.56v4.7h-0.82V47.11h0.82V53.2z"/>
	<path d="M206.79,55.06c0-4.22,2.52-6.83,5.95-6.83c2.54,0,4.08,1.26,4.88,3.74l-0.84,0.18c-0.74-2.24-2-3.18-4.06-3.18
		c-2.98,0-5.04,2.28-5.04,6.07v0.04c0,3.56,1.7,6.03,4.84,6.03c2.34,0,3.78-1.22,4.38-3.46l0.82,0.16c-0.68,2.6-2.42,4.02-5.21,4.02
		C208.85,61.83,206.79,59.05,206.79,55.06z"/>
	<path d="M225.56,59.17c-0.46,1.54-1.98,2.6-3.72,2.58c-2.04-0.02-2.94-1.2-2.92-2.56c0.02-1.76,1.42-2.56,3.6-2.98
		c2.02-0.4,3-0.56,3-1.3v-0.16c0-1.6-0.8-2.44-2.56-2.44c-1.28,0-2.6,0.68-3.14,1.66l-0.7-0.36c0.68-1.12,2.16-2,3.88-2
		c2.22,0,3.34,1.02,3.34,3.32v3.38c0,2.06,0.2,2.94,0.42,3.28h-0.84C225.74,61.25,225.58,60.73,225.56,59.17z M225.52,57.56V55.8
		c-0.24,0.38-1.56,0.72-2.42,0.88c-2.02,0.36-3.32,1-3.32,2.46c0,1.28,0.92,1.9,2.14,1.9C223.9,61.05,225.48,59.53,225.52,57.56z"/>
	<path d="M228.98,51.78h0.82v1.46l-0.2,3.18h0.1c0.42-2.54,1.76-4.76,3.78-4.76h0.38v0.9c-0.14-0.04-0.3-0.04-0.54-0.04
		c-1.8,0-3.06,2.32-3.54,4.68v4.38h-0.8V51.78z"/>
	<path d="M234,56.66c0.02-3.28,1.88-5.06,4.38-5.06c2.74,0,3.98,1.9,3.94,4.42v0.78h-7.49c0.04,2.74,1.36,4.24,3.58,4.24
		c1.5,0,2.38-0.6,2.94-1.4l0.62,0.42c-0.72,0.96-1.82,1.68-3.58,1.68C235.58,61.75,233.98,59.83,234,56.66z M234.86,56.14h6.63v-0.2
		c0-2.32-0.96-3.66-3.14-3.66C236.56,52.28,235.02,53.42,234.86,56.14z"/>
	<path d="M246.75,55.06c0-4.22,2.52-6.83,5.95-6.83c2.54,0,4.08,1.26,4.88,3.74l-0.84,0.18c-0.74-2.24-2-3.18-4.06-3.18
		c-2.98,0-5.04,2.28-5.04,6.07v0.04c0,3.56,1.7,6.03,4.84,6.03c2.34,0,3.78-1.22,4.38-3.46l0.82,0.16c-0.68,2.6-2.42,4.02-5.21,4.02
		C248.81,61.83,246.75,59.05,246.75,55.06z"/>
	<path d="M258.84,56.68c0-2.88,1.72-5.08,4.66-5.08c2.82,0,4.42,2,4.42,5.08c0,3.1-1.84,5.06-4.5,5.06
		C260.54,61.75,258.84,59.87,258.84,56.68z M267.04,56.68c0-2.66-1.24-4.4-3.56-4.4c-2.38,0-3.78,1.82-3.78,4.4
		c0,2.72,1.4,4.36,3.72,4.36C265.64,61.05,267.04,59.35,267.04,56.68z"/>
	<path d="M270.88,53.2c0,0.04-0.12,1.72-0.12,1.72h0.1c0.24-1.3,1.56-3.32,3.8-3.32c2.12,0,2.94,1.62,2.94,3.92v6.07h-0.84v-6.05
		c0-2.06-0.66-3.22-2.32-3.22c-1.92,0-3.44,1.74-3.56,4.54v4.72h-0.84v-9.81h0.84V53.2z"/>
	<path d="M279.51,59.85l0.62-0.44c0.74,1.24,1.94,1.64,3.16,1.64c1.48,0,2.4-0.74,2.4-1.94c0-1.26-1.32-1.72-2.72-2.2
		c-1.62-0.52-3.14-1.02-3.14-2.72c0-1.68,1.54-2.58,3.28-2.58c1.7,0,2.74,0.72,3.34,1.62l-0.62,0.44c-0.5-0.82-1.44-1.38-2.76-1.38
		c-1.36,0-2.4,0.72-2.4,1.8c0,1.3,1.1,1.62,2.7,2.18c1.56,0.54,3.14,1.08,3.14,2.84c0,1.64-1.34,2.64-3.28,2.64
		C281.67,61.75,280.33,61.17,279.51,59.85z"/>
	<path d="M287.69,56.68c0-2.88,1.72-5.08,4.66-5.08c2.82,0,4.42,2,4.42,5.08c0,3.1-1.84,5.06-4.5,5.06
		C289.4,61.75,287.69,59.87,287.69,56.68z M295.9,56.68c0-2.66-1.24-4.4-3.56-4.4c-2.38,0-3.78,1.82-3.78,4.4
		c0,2.72,1.4,4.36,3.72,4.36C294.5,61.05,295.9,59.35,295.9,56.68z"/>
	<path d="M298.78,51.78h0.82v1.46l-0.2,3.18h0.1c0.42-2.54,1.76-4.76,3.78-4.76h0.38v0.9c-0.14-0.04-0.3-0.04-0.54-0.04
		c-1.8,0-3.06,2.32-3.54,4.68v4.38h-0.8V51.78z"/>
	<path d="M303.58,51.78h1.86l0.04-3l0.74-0.36v2.5l-0.02,0.86h3.2v0.72h-3.22l0.04,1v5.27c0,1.7,0.32,2.22,1.56,2.22
		c0.62,0,1.26-0.1,1.9-0.34v0.7c-0.5,0.2-1.32,0.36-2.02,0.36c-1.62,0-2.24-0.78-2.24-2.68V52.5h-1.84V51.78z"/>
	<path d="M311.23,49.52v-1.7c0-0.04,0.02-0.06,0.08-0.06h0.78c0.02,0,0.06,0.02,0.06,0.06v1.7c0,0.06-0.04,0.08-0.06,0.08h-0.78
		C311.25,49.6,311.23,49.58,311.23,49.52z M311.27,51.78h0.84v9.81h-0.84V51.78z"/>
	<path d="M314.97,57.84v-6.07h0.84v6.11c0,2.1,0.7,3.12,2.38,3.12c1.84,0,3.06-1.7,3.3-4.36v-4.86h0.84v9.81h-0.82v-0.98l0.08-1.98
		h-0.08c-0.2,1.16-1.28,3.16-3.48,3.14C315.87,61.75,314.97,60.21,314.97,57.84z"/>
	<path d="M326.16,53.2c0,0.06-0.12,1.72-0.12,1.72h0.1c0.24-1.28,1.38-3.32,3.62-3.32c1.9,0,2.64,1.4,2.7,3.34h0.1
		c0.48-2.02,1.88-3.34,3.44-3.34c1.96,0,2.68,1.5,2.68,3.94v6.05h-0.84v-6.03c0-2.18-0.56-3.2-2.04-3.2c-1.68,0-3.14,1.64-3.28,4.48
		v4.74h-0.86v-6.05c0-2.06-0.5-3.22-2.12-3.22c-1.92,0-3.26,1.74-3.38,4.54v4.72h-0.84v-9.81h0.84V53.2z"/>
</g>
</svg>
